<?xml version="1.0" encoding="UTF-8"?>
<svg width="70px" height="70px" viewBox="0 0 70 70" version="1.1" xmlns="http://www.w3.org/2000/svg" xmlns:xlink="http://www.w3.org/1999/xlink">
    <!-- Generator: Sketch 52.2 (67145) - http://www.bohemiancoding.com/sketch -->
    <title>building</title>
    <desc>Created with Sketch.</desc>
    <g id="VD" stroke="none" stroke-width="1" fill="none" fill-rule="evenodd">
        <g id="Landing-page---option-1" transform="translate(-210.000000, -2390.000000)" fill="#FFFFFF" fill-rule="nonzero">
            <g id="sec" transform="translate(0.000000, 2027.000000)">
                <g id="Group" transform="translate(160.000000, 78.000000)">
                    <g id="col" transform="translate(0.000000, 195.000000)">
                        <g id="building" transform="translate(50.000000, 90.000000)">
                            <path d="M50.1666211,65.3333789 L17.5,65.3333789 C16.8560547,65.3333789 16.3333789,65.8560547 16.3333789,66.5 L16.3333789,68.8333789 C16.3333789,69.4773242 16.8560547,70 17.5,70 C18.1439453,70 18.6666211,69.4773242 18.6666211,68.8333789 L18.6666211,67.6667578 L50.1666211,67.6667578 C50.8105664,67.6667578 51.3332422,67.144082 51.3332422,66.5001367 C51.3332422,65.8561914 50.8107031,65.3333789 50.1666211,65.3333789 Z" id="Shape"></path>
                            <path d="M25.6666211,29.1666211 C25.6666211,29.8105664 26.1892969,30.3332422 26.8332422,30.3332422 L31.5,30.3332422 C32.1439453,30.3332422 32.6666211,29.8105664 32.6666211,29.1666211 L32.6666211,22.1666211 C32.6666211,21.5226758 32.1439453,21 31.5,21 L26.8333789,21 C26.1894336,21 25.6667578,21.5226758 25.6667578,22.1666211 L25.6667578,29.1666211 L25.6666211,29.1666211 Z M28,23.3333789 L30.3333789,23.3333789 L30.3333789,28 L28,28 L28,23.3333789 Z" id="Shape"></path>
                            <path d="M15.1666211,14 L1.16662109,14 C0.522675781,14 0,14.5226758 0,15.1666211 L0,38.5 C0,39.1439453 0.522675781,39.6666211 1.16662109,39.6666211 C1.81056641,39.6666211 2.33324219,39.1439453 2.33324219,38.5 L2.33324219,16.3333789 L15.1666211,16.3333789 C15.8105664,16.3333789 16.3332422,15.8107031 16.3332422,15.1667578 C16.3332422,14.5228125 15.8107031,14 15.1666211,14 Z" id="Shape"></path>
                            <path d="M56,57.1666211 C56,57.8105664 56.5226758,58.3332422 57.1666211,58.3332422 L61.8332422,58.3332422 C62.4771875,58.3332422 62.9998633,57.8105664 62.9998633,57.1666211 L62.9998633,50.1666211 C62.9998633,49.5226758 62.4771875,49 61.8332422,49 L57.1666211,49 C56.5226758,49 56,49.5226758 56,50.1666211 L56,57.1666211 Z M58.3333789,51.3333789 L60.6667578,51.3333789 L60.6667578,56 L58.3333789,56 L58.3333789,51.3333789 Z" id="Shape"></path>
                            <path d="M5.83337891,42 C0.0664453125,42 0,57.015 0,57.1666211 C0,59.9841211 2.00785156,62.3396484 4.66662109,62.8821484 L4.66662109,68.8333789 C4.66662109,69.4773242 5.18929688,70 5.83324219,70 C6.4771875,70 6.99986328,69.4773242 6.99986328,68.8333789 L6.99986328,62.8821484 C9.65863281,62.3396484 11.6664844,59.9841211 11.6664844,57.1666211 C11.6666211,57.015 11.6001758,42 5.83337891,42 Z M5.83337891,60.6666211 C3.90373047,60.6666211 2.33337891,59.0962695 2.33337891,57.1666211 C2.33337891,51.3542969 3.89443359,44.3332422 5.83337891,44.3332422 C7.77232422,44.3332422 9.33337891,51.3542969 9.33337891,57.1666211 C9.33337891,59.0962695 7.76302734,60.6666211 5.83337891,60.6666211 Z" id="Shape"></path>
                            <path d="M12.8333789,35 L8.16662109,35 C7.52267578,35 7,35.5226758 7,36.1666211 L7,38.5 C7,39.1439453 7.52267578,39.6666211 8.16662109,39.6666211 C8.81056641,39.6666211 9.33324219,39.1439453 9.33324219,38.5 L9.33324219,37.3333789 L11.6666211,37.3333789 L11.6666211,43.1667578 C11.6666211,43.8107031 12.1892969,44.3333789 12.8332422,44.3333789 C13.4771875,44.3333789 13.9998633,43.8107031 13.9998633,43.1667578 L13.9998633,36.1667578 C14,35.5226758 13.4773242,35 12.8333789,35 Z" id="Shape"></path>
                            <path d="M57.1666211,30.3333789 L61.8332422,30.3333789 C62.4771875,30.3333789 62.9998633,29.8107031 62.9998633,29.1667578 L62.9998633,22.1667578 C62.9998633,21.5228125 62.4771875,21.0001367 61.8332422,21.0001367 L57.1666211,21.0001367 C56.5226758,21.0001367 56,21.5228125 56,22.1667578 L56,29.1667578 C56,29.8107031 56.5226758,30.3333789 57.1666211,30.3333789 Z M58.3333789,23.3333789 L60.6667578,23.3333789 L60.6667578,28 L58.3333789,28 L58.3333789,23.3333789 Z" id="Shape"></path>
                            <path d="M12.8333789,21 L8.16662109,21 C7.52267578,21 7,21.5226758 7,22.1666211 L7,29.1666211 C7,29.8105664 7.52267578,30.3332422 8.16662109,30.3332422 L12.8332422,30.3332422 C13.4771875,30.3332422 13.9998633,29.8105664 13.9998633,29.1666211 L13.9998633,22.1666211 C14,21.5226758 13.4773242,21 12.8333789,21 Z M11.6666211,28 L9.33337891,28 L9.33337891,23.3333789 L11.6667578,23.3333789 L11.6667578,28 L11.6666211,28 Z" id="Shape"></path>
                            <path d="M37.3333789,29.1666211 C37.3333789,29.8105664 37.8560547,30.3332422 38.5,30.3332422 L43.1666211,30.3332422 C43.8105664,30.3332422 44.3332422,29.8105664 44.3332422,29.1666211 L44.3332422,22.1666211 C44.3332422,21.5226758 43.8105664,21 43.1666211,21 L38.5,21 C37.8560547,21 37.3333789,21.5226758 37.3333789,22.1666211 L37.3333789,29.1666211 Z M39.6666211,23.3333789 L42,23.3333789 L42,28 L39.6666211,28 L39.6666211,23.3333789 Z" id="Shape"></path>
                            <path d="M68.8333789,14 L54.8333789,14 C54.1894336,14 53.6667578,14.5226758 53.6667578,15.1666211 C53.6667578,15.8105664 54.1894336,16.3332422 54.8333789,16.3332422 L67.6667578,16.3332422 L67.6667578,63.2146484 C67.3004883,63.0839453 66.9119336,63 66.5001367,63 C66.2983398,63 66.0976367,63.0175 65.9004883,63.0525 C65.0954883,61.6023242 63.5636914,60.6666211 61.8335156,60.6666211 C60.1033398,60.6666211 58.571543,61.6023242 57.766543,63.0525 C57.5693945,63.0175 57.3686914,63 57.1668945,63 C55.2372461,63 53.6668945,64.5703516 53.6668945,66.5 C53.6668945,68.4296484 55.2372461,70 57.1668945,70 L66.5,70 C68.4296484,70 70,68.4296484 70,66.5 L70,15.1666211 C70,14.5226758 69.4773242,14 68.8333789,14 Z M66.5,67.6666211 L57.1666211,67.6666211 C56.5237695,67.6666211 56,67.1428516 56,66.5 C56,65.8571484 56.5237695,65.3333789 57.1666211,65.3333789 C57.3905664,65.3333789 57.6028906,65.3975 57.7989453,65.5235547 C58.1185938,65.7289063 58.5176758,65.7662305 58.87,65.6239063 C59.2223242,65.481582 59.4825,65.1758789 59.5676758,64.8060547 C59.8139063,63.7432031 60.7460547,63 61.8333789,63 C62.9207031,63 63.8528516,63.7432031 64.099082,64.8060547 C64.1842578,65.1758789 64.4444336,65.481582 64.7967578,65.6239063 C65.1479883,65.7662305 65.5480273,65.7289062 65.8678125,65.5235547 C66.6272852,65.0335547 67.6667578,65.6332031 67.6667578,66.5 C67.6666211,67.1428516 67.1428516,67.6666211 66.5,67.6666211 Z" id="Shape"></path>
                            <path d="M38.5,16.3333789 L43.1666211,16.3333789 C43.8105664,16.3333789 44.3332422,15.8107031 44.3332422,15.1667578 L44.3332422,8.16675781 C44.3332422,7.5228125 43.8105664,7.00013672 43.1666211,7.00013672 L38.5,7.00013672 C37.8560547,7.00013672 37.3333789,7.5228125 37.3333789,8.16675781 L37.3333789,15.1667578 C37.3333789,15.8107031 37.8560547,16.3333789 38.5,16.3333789 Z M39.6666211,9.33337891 L42,9.33337891 L42,14 L39.6666211,14 L39.6666211,9.33337891 Z" id="Shape"></path>
                            <path d="M37.3333789,43.1666211 C37.3333789,43.8105664 37.8560547,44.3332422 38.5,44.3332422 L43.1666211,44.3332422 C43.8105664,44.3332422 44.3332422,43.8105664 44.3332422,43.1666211 L44.3332422,36.1666211 C44.3332422,35.5226758 43.8105664,35 43.1666211,35 L38.5,35 C37.8560547,35 37.3333789,35.5226758 37.3333789,36.1666211 L37.3333789,43.1666211 Z M39.6666211,37.3333789 L42,37.3333789 L42,42 L39.6666211,42 L39.6666211,37.3333789 Z" id="Shape"></path>
                            <path d="M26.8333789,16.3333789 L31.5,16.3333789 C32.1439453,16.3333789 32.6666211,15.8107031 32.6666211,15.1667578 L32.6666211,8.16675781 C32.6666211,7.5228125 32.1439453,7.00013672 31.5,7.00013672 L26.8333789,7.00013672 C26.1894336,7.00013672 25.6667578,7.5228125 25.6667578,8.16675781 L25.6667578,15.1667578 C25.6666211,15.8107031 26.1892969,16.3333789 26.8333789,16.3333789 Z M28,9.33337891 L30.3333789,9.33337891 L30.3333789,14 L28,14 L28,9.33337891 Z" id="Shape"></path>
                            <path d="M34.1716211,56.3383789 C33.9616211,56.56 33.8332422,56.8633789 33.8332422,57.1667578 C33.8332422,57.4701367 33.9616211,57.7733789 34.1716211,57.9951367 C34.3932422,58.2051367 34.6966211,58.3335156 35,58.3335156 C35.3033789,58.3335156 35.6066211,58.2051367 35.8283789,57.9951367 C36.0383789,57.7735156 36.1667578,57.4701367 36.1667578,57.1667578 C36.1667578,56.8633789 36.0383789,56.5601367 35.8283789,56.3383789 C35.385,55.9066211 34.615,55.9066211 34.1716211,56.3383789 Z" id="Shape"></path>
                            <path d="M25.6666211,43.1666211 C25.6666211,43.8105664 26.1892969,44.3332422 26.8332422,44.3332422 L31.5,44.3332422 C32.1439453,44.3332422 32.6666211,43.8105664 32.6666211,43.1666211 L32.6666211,36.1666211 C32.6666211,35.5226758 32.1439453,35 31.5,35 L26.8333789,35 C26.1894336,35 25.6667578,35.5226758 25.6667578,36.1666211 L25.6667578,43.1666211 L25.6666211,43.1666211 Z M28,37.3333789 L30.3333789,37.3333789 L30.3333789,42 L28,42 L28,37.3333789 Z" id="Shape"></path>
                            <path d="M23.3333789,50.1666211 C23.3333789,50.8105664 23.8560547,51.3332422 24.5,51.3332422 L28,51.3332422 L28,61.8332422 C28,62.4771875 28.5226758,62.9998633 29.1666211,62.9998633 C29.8105664,62.9998633 30.3332422,62.4771875 30.3332422,61.8332422 L30.3332422,51.3332422 L39.6666211,51.3332422 L39.6666211,61.8332422 C39.6666211,62.4771875 40.1892969,62.9998633 40.8332422,62.9998633 C41.4771875,62.9998633 41.9998633,62.4771875 41.9998633,61.8332422 L41.9998633,51.3332422 L45.4998633,51.3332422 C46.1438086,51.3332422 46.6664844,50.8105664 46.6664844,50.1666211 C46.6664844,49.5226758 46.1438086,49 45.4998633,49 L24.5,49 C23.8560547,49 23.3333789,49.5226758 23.3333789,50.1666211 Z" id="Shape"></path>
                            <path d="M56,43.1666211 C56,43.8105664 56.5226758,44.3332422 57.1666211,44.3332422 L61.8332422,44.3332422 C62.4771875,44.3332422 62.9998633,43.8105664 62.9998633,43.1666211 L62.9998633,36.1666211 C62.9998633,35.5226758 62.4771875,35 61.8332422,35 L57.1666211,35 C56.5226758,35 56,35.5226758 56,36.1666211 L56,43.1666211 Z M58.3333789,37.3333789 L60.6667578,37.3333789 L60.6667578,42 L58.3333789,42 L58.3333789,37.3333789 Z" id="Shape"></path>
                            <path d="M50.1666211,0 L19.8333789,0 C19.1894336,0 18.6667578,0.522675781 18.6667578,1.16662109 L18.6667578,61.8332422 C18.6667578,62.4771875 19.1894336,62.9998633 19.8333789,62.9998633 C20.4773242,62.9998633 21,62.4771875 21,61.8332422 L21,2.33324219 L49,2.33324219 L49,61.8332422 C49,62.4771875 49.5226758,62.9998633 50.1666211,62.9998633 C50.8105664,62.9998633 51.3332422,62.4771875 51.3332422,61.8332422 L51.3332422,1.16662109 C51.3333789,0.522675781 50.8107031,0 50.1666211,0 Z" id="Shape"></path>
                        </g>
                    </g>
                </g>
            </g>
        </g>
    </g>
</svg>