<?xml version="1.0" encoding="UTF-8"?>
<svg width="71px" height="72px" viewBox="0 0 71 72" version="1.1" xmlns="http://www.w3.org/2000/svg" xmlns:xlink="http://www.w3.org/1999/xlink">
    <!-- Generator: Sketch 52.2 (67145) - http://www.bohemiancoding.com/sketch -->
    <title>plans</title>
    <desc>Created with Sketch.</desc>
    <g id="VD" stroke="none" stroke-width="1" fill="none" fill-rule="evenodd">
        <g id="Landing-page---option-1" transform="translate(-809.000000, -2390.000000)" fill="#FFFFFF">
            <g id="sec" transform="translate(0.000000, 2027.000000)">
                <g id="Group" transform="translate(160.000000, 78.000000)">
                    <g id="col" transform="translate(600.000000, 195.000000)">
                        <g id="plans" transform="translate(49.000000, 90.000000)">
                            <path d="M69.7937145,6.31911708 C70.4600001,6.31911708 71,5.76950013 71,5.09166268 L71,1.2274544 C71,0.54961695 70.4601385,0 69.7937145,0 L15.2062855,0 C14.5401382,0 14,0.54961695 14,1.2274544 L14,56.7725456 C14,57.4503831 14.5401382,58 15.2062855,58 L69.7934378,58 C70.4597235,58 70.9997234,57.4503831 70.9997234,56.7725456 L70.9997234,9.18303659 C70.9997234,8.50519914 70.4598618,7.9555822 69.7934378,7.9555822 C69.1271521,7.9555822 68.5871523,8.50519914 68.5871523,9.18303659 L68.5871523,30.2128871 L63.7965901,30.2128871 C63.1303044,30.2128871 62.5903045,30.762504 62.5903045,31.4403415 C62.5903045,32.1181789 63.1301661,32.6677959 63.7965901,32.6677959 L68.5871523,32.6677959 L68.5871523,55.545232 L34.1228788,55.545232 L34.1228788,49.6061317 C34.1228788,48.9282943 33.5827406,48.3786773 32.9165933,48.3786773 C32.2504459,48.3786773 31.7103077,48.9282943 31.7103077,49.6061317 L31.7103077,55.545232 L16.4125711,55.545232 L16.4125711,2.45490879 L31.710446,2.45490879 L31.710446,40.7687697 C31.710446,41.4466071 32.2505842,41.9962241 32.9167316,41.9962241 C33.5828789,41.9962241 34.1230171,41.4466071 34.1230171,40.7687697 L34.1230171,32.6677959 L55.5942357,32.6677959 C56.2605214,32.6677959 56.8005212,32.1181789 56.8005212,31.4403415 C56.8005212,30.762504 56.2606597,30.2128871 55.5942357,30.2128871 L34.1228788,30.2128871 L34.1228788,2.45490879 L68.5874289,2.45490879 L68.5874289,5.09166268 C68.5874289,5.76950013 69.1272905,6.31911708 69.7937145,6.31911708 Z" id="Path"></path>
                            <path d="M9.82417719,6.93582912 L5.98710865,0.566651355 C5.7748345,0.214285714 5.40148801,0 5.0000072,0 C4.59839304,0 4.22517989,0.214285714 4.01290575,0.566651355 L0.175703863,6.93582912 C-0.0475040027,7.30638493 -0.0588377354,7.77285255 0.146236158,8.15443271 C0.351310051,8.53601286 0.740523766,8.77276068 1.16280531,8.77276068 L3.83716622,8.77276068 L3.83716622,13.7982085 C3.83716622,14.4618741 4.35785124,15 5.0000072,15 C5.64216316,15 6.16284817,14.4618741 6.16284817,13.7982085 L6.16284817,8.77276068 L8.83720908,8.77276068 C9.25949063,8.77276068 9.64870434,8.53615067 9.85377824,8.15443271 C10.0588521,7.77271475 10.0475184,7.30624713 9.82417719,6.93582912 Z M3.25661243,6.36917777 L4.99987386,3.4755627 L6.74313529,6.36917777 L3.25661243,6.36917777 Z" id="Shape" fill-rule="nonzero"></path>
                            <path d="M9.85367797,49.643917 C9.64860339,49.2529007 9.25938837,49.0104396 8.8371054,49.0104396 L6.16273552,49.0104396 L6.16273552,17.2315105 C6.16273552,16.5514331 5.64204876,16 4.99989064,16 C4.35773252,16 3.83704576,16.5514331 3.83704576,17.2315105 L3.83704576,49.0102984 L1.16280922,49.0102984 C0.740526252,49.0102984 0.35131123,49.2527595 0.146236649,49.643917 C-0.0588379329,50.0350744 -0.0475041622,50.5130772 0.175704452,50.8926553 L4.01278588,57.419336 C4.22506074,57.7804152 4.59827514,58 4.99989064,58 C5.40163948,58 5.77485388,57.7804152 5.9869954,57.419336 L9.82407683,50.8926553 C10.0475521,50.5127948 10.0588859,50.0349332 9.85367797,49.643917 Z M5.00002398,54.4386316 L3.25662336,51.4734605 L6.74315792,51.4734605 L5.00002398,54.4386316 Z" id="Shape" fill-rule="nonzero"></path>
                            <path d="M70.4312297,66.0128816 L64.0382345,62.1756587 C63.666293,61.9524418 63.198081,61.941241 62.8150739,62.1461898 C62.4320669,62.3512719 62.194572,62.7405013 62.194572,63.1627998 L62.194572,65.8372683 L22.8055663,65.8372683 L22.8055663,63.1627998 C22.8055663,62.7405013 22.5680715,62.3512719 22.1850644,62.1461898 C21.8020573,61.941241 21.3339837,61.9524418 20.9617655,62.1756587 L14.5687703,66.0128816 C14.215087,66.2251642 14,66.5983924 14,67.0000227 C14,67.401653 14.215087,67.7748812 14.5687703,67.9871639 L20.9617655,71.8243867 C21.1565196,71.9413289 21.377831,72 21.5992807,72 C21.8008124,72 22.0024825,71.951463 22.1849261,71.8538556 C22.5680715,71.6487735 22.8055663,71.2595441 22.8055663,70.8372456 L22.8055663,68.1627771 L62.1944337,68.1627771 L62.1944337,70.8372456 C62.1944337,71.2595441 62.4322052,71.6487735 62.8149356,71.8538556 C62.9975175,71.9515963 63.1991876,72 63.4007193,72 C63.622169,72 63.8434804,71.9411956 64.0382345,71.8243867 L70.4312297,67.9871639 C70.784913,67.7748812 71,67.401653 71,67.0000227 C71,66.5982591 70.784913,66.2251642 70.4312297,66.0128816 Z M20.3929952,68.7433543 L17.4885595,67.0000227 L20.3929952,65.2566912 L20.3929952,68.7433543 Z M64.6070048,68.7433543 L64.6070048,65.2566912 L67.5117171,67.0000227 L64.6070048,68.7433543 Z" id="Shape" fill-rule="nonzero"></path>
                        </g>
                    </g>
                </g>
            </g>
        </g>
    </g>
</svg>